<svg width="308" height="356" viewBox="0 0 308 356" fill="none" xmlns="http://www.w3.org/2000/svg">
<path d="M48.1732 155.568C37.7842 160.455 10.2872 182.454 4.99116 188.972C-0.508837 195.49 -2.13784 185.306 3.56516 168.4C8.04516 154.753 19.4532 136.217 38.5992 120.33C49.8012 111.164 74.4482 97.9249 89.5202 90.1839C92.5762 88.5539 132.091 71.8519 167.329 63.5009C170.385 62.6859 163.663 68.5929 162.644 71.8519C157.348 87.3319 51.6342 153.734 51.6342 153.734L48.1732 155.568Z" fill="black"/>
<path d="M197.067 342.348C198.9 353.347 197.271 354.162 185.865 355.588C174.458 357.014 166.107 352.736 163.052 349.885C159.996 347.032 159.386 340.719 162.441 335.016C164.275 331.349 166.108 330.127 167.127 325.646C168.145 321.369 168.96 320.35 169.774 318.721C170.588 317.294 170.793 315.868 170.996 305.888C171.2 295.908 170.996 277.168 172.015 269.225C173.034 261.078 208.272 272.891 208.272 272.891C208.272 272.891 199.92 293.667 197.68 298.759C195.439 303.852 195.643 313.628 195.643 315.665C195.643 317.702 194.829 321.775 194.217 321.979C193.606 322.182 196.254 327.478 195.031 330.534C194.216 333.386 196.864 340.719 197.067 342.348Z" fill="black"/>
<path d="M210.511 30.9109C209.288 23.1709 210.511 7.89291 212.14 5.44991C217.233 -1.47609 244.119 -2.2901 249.823 5.8569C252.267 9.5229 252.063 18.0779 251.656 23.5779C251.249 29.0769 249.823 40.8909 249.619 44.7619C249.416 47.6139 219.881 52.0939 213.363 44.3539C211.529 42.3179 210.511 30.9109 210.511 30.9109Z" fill="black"/>
<path d="M270.395 322.59C282.82 331.553 292.393 333.182 298.707 336.441C305.021 339.701 303.392 346.015 292.8 347.848C284.245 349.477 270.802 346.218 261.84 346.218C252.878 346.218 232.916 347.237 227.62 343.571C221.51 339.294 224.157 331.349 224.157 331.349C225.787 326.869 229.86 316.887 228.638 308.74C227.416 300.593 225.786 296.112 222.731 288.575C219.676 281.039 217.436 262.504 220.288 261.485C223.14 260.466 222.324 261.485 225.991 262.299C229.657 263.113 233.731 264.336 241.675 264.336C249.619 264.336 258.377 263.113 261.433 262.503C264.488 261.892 266.932 261.28 265.913 267.595C264.895 273.909 261.84 285.723 261.636 294.889C261.433 304.055 261.433 314.647 262.044 316.48C262.654 318.313 267.136 320.35 270.395 322.59Z" fill="black"/>
<path d="M226.806 51.2799C204.401 70.6309 161.015 75.9259 96.6512 100.776C80.1522 107.09 36.1562 126.033 25.5642 145.791C61.2092 125.219 74.4492 153.531 77.3002 182.658C79.9472 209.952 93.5952 224.211 128.629 223.395C164.682 222.581 175.681 243.56 185.661 268.207C205.011 173.899 235.972 155.568 255.932 139.477C298.3 105.053 246.156 44.3539 226.806 51.2799Z" fill="#88CE02"/>
<path d="M226.806 51.2799C173.033 70.0189 119.87 74.7039 57.3392 113.201C42.4702 122.367 11.1022 143.142 4.99117 182.862C27.8032 157.604 80.5582 125.83 145.127 105.665C177.717 95.4799 201.549 88.7589 230.472 77.5559C228.436 64.5189 228.436 59.4269 226.806 51.2799Z" fill="#88CE02"/>
<path d="M295.448 162.9C295.448 162.9 291.578 176.14 283.838 180.418C283.838 180.418 278.135 182.455 266.729 176.141C263.47 174.308 261.026 167.994 261.229 165.956C261.433 161.067 264.488 158.827 264.488 158.827C264.488 158.827 267.748 153.327 271.617 153.531C275.488 153.734 282.006 154.345 284.043 152.512C285.875 150.475 295.856 156.178 295.448 162.9Z" fill="black"/>
<path d="M212.344 34.7809C212.344 34.7809 211.53 45.1699 210.104 51.6869C209.9 52.9099 203.79 53.5199 199.308 55.3539C207.863 79.7959 259.396 79.5919 266.118 67.5749C262.859 65.3349 256.341 61.8719 253.286 60.6499C250.23 59.4269 250.434 59.6309 250.23 53.9279C250.027 48.2239 249.619 37.6329 249.211 34.7809C248.804 31.9289 217.232 31.9289 212.344 34.7809Z" fill="black"/>
<path d="M214.381 34.7809C214.381 34.7809 214.381 40.6879 213.77 46.3909C213.567 49.0389 213.363 50.6679 212.956 52.7049C212.752 53.9279 219.881 58.8149 221.918 69.6109C231.695 91.4049 254.305 80.6099 263.674 70.2219C260.415 67.9809 255.119 64.9259 249.009 62.4819C245.953 61.2589 247.379 58.6119 247.176 52.9089C246.972 47.2059 246.157 38.8539 245.75 35.7989C245.341 32.7439 219.27 31.9289 214.381 34.7809Z" fill="#EFEFEF"/>
<path d="M212.344 34.7809C212.344 34.7809 212.14 38.4479 211.53 42.7249C214.177 45.3719 217.64 49.0389 220.289 51.2799C222.122 52.9099 226.602 52.7059 230.677 52.7059C234.343 52.7059 237.602 53.1129 239.028 52.2989C242.288 50.6689 246.972 46.5959 249.62 43.5399C249.417 39.8739 249.213 36.4109 249.01 34.7809C248.804 31.9289 217.232 31.9289 212.344 34.7809Z" fill="black"/>
<path d="M230.88 50.2609C228.435 50.2609 225.583 50.0579 223.343 49.6499C222.324 49.4469 221.306 48.8359 220.491 48.4279C219.065 47.4089 217.639 46.1879 216.011 44.9649C212.751 42.5209 212.548 41.0949 212.548 40.4849C213.974 27.6519 212.14 16.8569 212.14 16.8569C212.14 16.8569 210.714 11.3569 218.454 9.93091C226.194 8.50491 230.879 8.30191 230.879 8.30191C230.879 8.30191 235.768 8.30191 243.304 9.93091C251.044 11.3569 249.618 16.8569 249.618 16.8569C249.618 16.8569 247.785 27.6519 249.211 40.4849C249.211 41.0949 249.008 42.5209 245.748 44.9649C242.896 47.0019 240.656 49.2419 238.416 49.6499C236.175 50.0579 233.323 50.2609 230.88 50.2609Z" fill="black"/>
<path d="M230.88 3.00591C217.437 3.00591 214.788 6.67191 210.918 10.7459C210.104 11.7639 210.714 17.8749 212.141 30.9109H213.974C213.974 30.9109 212.751 27.2439 212.955 22.9669C213.159 18.6899 213.974 18.8939 213.362 17.8749C212.548 16.6519 210.918 14.6149 214.585 12.5789C218.251 10.5419 223.954 14.2079 230.88 14.4119C237.805 14.2079 243.712 10.5419 247.378 12.5789C251.044 14.6149 249.415 16.6519 248.601 17.8749C247.786 19.0969 248.804 18.6889 249.008 22.9669C249.211 27.2439 247.989 30.9109 247.989 30.9109H249.822C251.044 17.8749 251.859 12.1719 251.248 11.1529C247.785 6.67191 244.323 3.20891 230.88 3.00591Z" fill="black"/>
<path d="M295.448 163.511C295.448 163.511 291.578 175.936 284.042 180.213C282.412 179.399 282.616 178.177 281.19 176.343C280.782 175.733 279.356 175.324 278.746 174.714C278.135 174.103 278.339 173.084 277.32 172.27C276.505 171.455 275.894 172.066 275.079 171.455C274.265 170.641 274.06 169.622 273.45 169.012C273.042 168.604 271.413 168.401 271.006 167.993C269.987 166.974 261.026 165.141 261.433 163.104C262.247 160.048 263.877 157.808 263.877 157.808C263.877 157.808 267.747 152.105 271.616 152.308C275.486 152.512 279.153 153.327 281.19 151.494C283.431 149.456 296.06 156.993 295.448 163.511Z" fill="black"/>
<path d="M268.969 73.4819C268.969 73.4819 281.801 70.4259 290.56 78.7779C299.319 87.3329 298.707 97.9239 296.06 104.442C298.3 107.09 302.374 114.422 299.319 123.181C312.762 134.587 306.855 152.105 294.838 163.715C294.838 163.715 291.986 153.123 280.58 152.512C280.987 148.439 269.988 145.179 275.08 134.587C267.34 132.754 267.544 127.458 266.322 120.941C265.303 114.422 268.969 73.4819 268.969 73.4819Z" fill="black"/>
<path d="M264.284 79.1849C264.284 79.1849 279.153 71.6489 287.912 80.2039C296.67 88.7589 294.225 98.1279 291.578 104.646C293.818 107.293 299.114 114.831 295.855 123.792C295.244 125.829 290.763 125.829 287.503 131.125C295.65 126.439 300.743 127.662 302.576 133.568C305.428 142.734 299.113 153.733 293.614 159.844C293.614 159.64 293.41 159.436 293.41 159.233C292.596 162.289 291.577 168.195 285.467 174.713C282.411 177.972 279.967 177.565 276.504 176.75C272.431 175.731 271.005 173.897 265.302 170.843C262.043 169.01 263.876 166.769 263.876 164.936C263.876 164.529 264.283 163.917 264.895 163.103C265.302 162.084 266.524 160.456 268.357 158.622C268.357 158.622 271.005 154.956 274.876 155.159C278.746 155.363 282.819 154.549 283.838 153.53C283.838 146.401 275.691 146.197 278.542 133.976C278.746 133.365 279.765 132.346 283.023 131.939C278.134 130.92 275.894 130.716 272.431 127.458C269.987 125.218 268.154 122.366 267.542 118.7C266.321 112.386 264.284 79.1849 264.284 79.1849Z" fill="#EFEFEF"/>
<path d="M221.306 66.3529C220.084 64.7229 213.77 56.5759 201.752 53.3169C198.289 52.2979 196.049 55.1499 192.587 57.1869C191.568 56.5759 187.087 54.5389 184.643 55.9639C182.199 57.3889 180.57 58.8159 178.125 59.8339C176.902 59.2229 173.644 59.2229 170.996 60.2409C168.348 61.0559 164.274 62.8889 160.404 68.1849C157.96 76.9439 203.585 70.4249 203.585 70.4249L221.306 66.3529Z" fill="black"/>
<path d="M221.714 66.3529C215.195 64.1119 216.214 56.5759 201.752 55.3539C198.9 55.1499 197.067 57.3899 195.03 58.8159C196.049 59.8349 197.067 61.4639 197.678 63.0929C195.845 61.0569 192.586 58.4079 189.326 57.7969C186.271 57.1869 184.234 59.4269 180.975 61.0569C181.585 61.6669 182.197 62.6859 183.011 63.9089C180.159 62.0759 178.123 61.4649 174.253 62.8899C171.605 63.7039 166.513 65.9449 162.643 71.4449C160.199 80.2039 203.788 70.4259 203.788 70.4259L221.714 66.3529Z" fill="#88CE02"/>
<path d="M260.007 69.6119C260.007 69.6119 260.007 67.3709 259.803 65.3349C259.803 64.9279 258.174 63.9089 258.174 63.5019L257.767 63.0939C257.767 63.0939 261.026 61.2609 263.47 62.2799C266.117 63.0939 267.543 66.5569 267.543 66.5569C272.228 64.9279 272.635 66.7609 274.876 69.2049C279.765 68.1859 280.375 70.0189 283.431 74.5009C283.431 74.5009 279.765 73.8899 272.636 75.1109C265.71 76.1289 260.007 69.4079 260.007 69.6119Z" fill="black"/>
<path d="M259.192 68.5929C259.192 68.5929 260.414 67.5739 260.006 67.3699C262.246 66.1479 265.302 64.7229 266.728 68.5929C271.413 66.9629 272.024 69.2039 274.264 71.6489C279.967 69.0009 280.374 72.2589 280.782 73.6849C278.949 73.6849 276.302 73.8889 272.635 74.2959C265.71 75.3149 258.988 68.3889 259.192 68.5929Z" fill="#88CE02"/>
<path d="M189.939 63.5009C189.939 63.5009 201.549 67.5739 211.326 66.9629C221.103 66.1489 237.805 65.3339 246.767 70.6299C246.767 70.6299 255.933 67.3699 264.488 69.6109C273.044 71.8509 288.727 86.5169 284.043 101.997C283.635 103.016 280.987 104.645 277.932 105.664C277.932 105.664 279.562 112.589 276.71 118.292C273.858 123.792 267.544 134.384 267.34 149.049C267.137 151.493 266.73 156.585 266.322 159.029C250.434 158.419 225.992 152.511 201.957 152.919C202.16 150.272 202.364 148.642 202.568 145.994H203.178C201.956 139.272 201.549 135.809 200.326 130.717C192.586 125.829 184.438 120.126 177.514 109.33C170.792 98.5339 189.939 63.5009 189.939 63.5009Z" fill="black"/>
<path d="M268.562 173.492C268.562 173.492 281.191 218.711 266.322 237.654C266.322 237.654 268.562 246.412 263.47 255.782C262.655 259.855 261.636 263.522 261.026 267.595C258.378 284.501 253.896 291.63 252.674 318.72L240.452 318.517C240.452 318.517 239.026 298.963 234.749 288.575C232.306 282.669 222.731 274.724 223.14 266.781C223.547 260.67 224.769 255.578 235.158 247.43C235.972 235.617 224.158 224.413 225.992 180.417L268.562 173.492Z" fill="black"/>
<path d="M264.896 171.658C268.155 192.434 275.691 223.191 262.044 238.263C262.654 241.115 263.062 245.189 262.247 249.873C261.84 252.317 261.025 254.965 260.007 257.816C257.97 262.705 257.155 269.834 256.544 274.111C253.896 291.017 253.896 291.833 252.674 318.923L240.452 318.719C240.452 318.719 239.026 299.165 234.749 288.778C232.306 282.871 227.213 277.779 226.806 269.835C226.399 263.725 230.676 251.504 240.861 251.911C240.25 227.265 228.843 232.153 225.788 180.824L264.896 171.658Z" fill="#EFEFEF"/>
<path d="M189.939 63.5009C189.939 63.5009 194.42 64.9269 199.308 65.3339C204.197 65.7409 209.493 65.3339 214.177 65.1299C223.954 64.3159 237.805 63.2969 246.971 68.5929C246.971 68.5929 252.063 66.9629 257.563 67.3699C260.007 67.5739 262.452 69.6109 265.303 70.4259C274.265 72.6659 282.82 87.5349 278.949 100.979C278.542 101.998 275.69 100.979 272.431 101.998C273.041 104.85 273.45 111.368 270.19 118.293C266.728 125.219 262.247 134.181 263.061 151.291C241.674 150.272 232.101 148.847 210.917 147.828C209.084 140.291 207.861 132.755 207.658 128.885C210.51 127.459 212.138 126.238 214.38 123.793C208.27 124.812 205.825 124.404 202.158 122.367C198.492 120.33 191.974 113.812 188.715 109.535C188.308 109.127 186.068 115.848 180.976 116.053C179.142 113.405 186.882 105.868 185.456 103.017C180.365 92.6279 189.939 63.5009 189.939 63.5009Z" fill="#EFEFEF"/>
<path d="M266.524 154.752C266.524 154.752 266.931 162.085 266.931 163.918C266.931 165.955 268.561 172.065 268.764 174.917C266.524 178.787 256.747 187.546 239.026 190.805C221.509 194.471 198.289 166.974 198.289 166.974C198.9 164.326 200.937 156.585 202.363 152.512C202.567 152.105 202.974 151.086 202.974 150.679C204.808 148.031 266.524 154.752 266.524 154.752Z" fill="black"/>
<path d="M262.044 155.364C262.044 160.456 262.858 164.123 263.47 167.382C264.488 173.289 266.117 177.159 266.117 181.029C266.117 192.842 250.637 190.805 237.6 191.213C220.083 194.88 205.214 167.382 205.214 167.382C206.436 162.697 207.251 157.402 209.084 152.92C209.287 150.476 209.695 147.421 209.898 145.995C234.748 145.995 252.265 147.421 262.45 148.438C262.858 150.679 262.451 154.549 262.044 155.364Z" fill="#EFEFEF"/>
<path d="M242.489 181.639C242.489 181.639 231.694 157.604 199.307 164.734C191.568 186.528 181.179 211.582 187.901 238.672C181.179 247.838 173.439 252.931 173.439 269.836C173.439 286.742 174.254 289.594 174.254 289.594L198.085 290.817C198.085 290.817 205.825 280.837 208.88 270.041C209.695 266.985 210.51 261.486 209.899 255.172C210.713 253.95 214.176 251.099 214.584 245.599C214.584 245.599 226.194 239.489 232.916 224.62C239.231 211.174 237.601 199.564 242.489 181.639Z" fill="black"/>
<path d="M242.489 181.639C241.879 179.399 233.731 157.401 203.585 163.918C185.865 211.174 192.383 230.728 195.03 239.282C183.012 254.558 177.513 257.817 179.958 288.778H195.846C203.178 277.168 204.808 272.89 205.215 257.614C205.215 257.003 202.975 258.836 201.345 260.873C202.568 254.559 206.03 253.337 208.678 249.467C209.9 247.837 210.918 245.393 210.918 242.134C225.176 232.561 230.472 220.543 233.527 208.118C235.972 199.564 238.823 185.509 242.489 181.639Z" fill="#EFEFEF"/>
<path d="M192.179 148.846C192.179 148.846 197.679 149.049 202.568 150.679C207.253 152.308 207.253 153.326 209.086 155.364C210.919 157.402 215.4 160.456 214.586 163.511C214.178 165.141 213.16 165.548 211.734 166.974C211.123 167.585 206.641 172.473 205.623 173.084C205.012 173.491 204.197 174.103 203.586 174.51C202.976 174.917 201.143 176.14 200.531 176.547C198.494 177.566 197.068 178.177 194.828 177.973C194.828 177.973 189.736 177.769 186.476 174.307C186.476 174.307 186.069 172.677 186.884 171.863C186.884 171.863 182.606 168.196 181.384 165.752C180.161 163.309 180.161 159.846 180.977 158.013C181.384 156.178 189.327 151.086 192.179 148.846Z" fill="black"/>
<path d="M197.272 347.033L196.661 352.126C196.661 352.126 194.828 354.366 181.181 354.163C167.33 353.959 163.664 349.682 162.442 347.441L161.628 342.145C161.628 342.145 164.276 338.275 164.887 338.275C169.368 338.682 184.645 344.793 195.237 346.422C196.253 346.422 196.456 346.829 197.272 347.033Z" fill="black"/>
<path d="M226.806 336.645C226.806 338.885 226.602 338.885 226.602 341.126C229.046 342.959 235.158 343.978 246.767 343.773C263.673 343.366 279.357 348.866 298.503 345.606L298.707 341.94L296.874 341.737L229.046 336.237L226.806 336.645Z" fill="black"/>
<path d="M241.675 343.774C243.305 343.774 244.934 343.774 246.767 343.774C257.767 343.367 268.155 345.811 279.357 346.422C285.264 346.218 292.597 344.792 291.986 340.515L234.139 335.626C230.676 339.496 233.323 342.755 241.675 343.774Z" fill="black"/>
<path d="M175.273 258.022C177.106 259.244 189.531 266.577 209.696 265.558C209.288 269.428 209.492 276.965 200.53 290.204C196.049 296.722 192.178 308.129 191.364 322.591C191.568 325.85 193.401 328.701 190.957 332.979C191.771 335.626 195.03 340.922 196.66 344.181C198.289 347.441 199.104 351.107 188.308 351.311C177.309 351.514 159.588 350.292 162.033 341.738C163.256 337.257 166.718 332.572 167.126 330.738C167.533 328.905 167.533 323.406 170.995 319.739C174.051 309.555 173.032 299.778 172.422 290.612C171.403 281.038 171.199 265.762 175.273 258.022Z" fill="black"/>
<path d="M194.216 92.0169C208.678 72.6659 196.456 57.1869 173.237 61.8709C163.867 63.7039 154.498 70.2229 153.886 82.0359C150.831 82.4429 143.906 82.8499 140.443 95.4789C137.796 105.256 136.37 107.089 131.684 111.977C128.629 115.44 131.888 122.569 134.128 127.662C141.665 145.179 164.885 146.808 180.569 160.048C185.865 158.622 191.364 152.716 192.994 148.846C179.754 133.161 182.605 127.051 177.309 118.904C183.013 116.866 196.049 108.923 194.216 92.0169Z" fill="black"/>
<path d="M191.364 90.7949C192.178 89.5719 193.604 86.9249 194.216 85.9059C194.42 85.7019 196.66 89.5719 196.864 89.3689C202.363 80.4059 203.789 67.3699 197.474 66.1479C196.048 65.9439 193.401 65.3339 191.16 64.5179C187.087 63.0919 183.421 63.0919 176.902 64.3149C167.94 65.9439 158.978 72.4619 158.978 81.8319C158.978 82.4429 165.291 84.2759 167.125 91.8129C164.069 87.5349 158.773 82.8499 152.459 86.9239C145.737 91.2009 149.2 100.978 140.238 111.162C137.182 114.625 137.59 118.699 140.848 126.846C146.144 139.679 171.198 146.604 184.845 158.825C188.104 157.399 190.344 154.14 191.974 151.696C182.808 142.123 179.141 133.16 176.494 126.642C173.235 119.106 169.568 114.829 162.439 109.124C166.106 110.55 168.958 111.976 170.586 113.198C172.419 114.42 175.067 114.624 177.512 113.809C186.272 110.756 190.957 98.5339 191.364 90.7949Z" fill="#EFEFEF"/>
<path d="M279.968 94.0539C279.357 101.794 273.654 97.9239 270.599 96.4979C264.488 93.8499 258.377 92.0169 251.248 92.0169C244.119 92.0169 234.953 92.6279 227.01 94.6649C216.011 97.7199 212.751 97.5169 207.863 95.0719C202.975 92.4239 194.421 85.9059 194.421 85.9059C194.421 85.9059 194.217 87.9429 196.254 90.5909C198.901 93.8499 204.809 97.9239 212.752 100.571C216.622 101.794 219.678 100.978 223.141 100.164C241.269 95.6829 260.415 94.8679 276.506 104.645C277.321 105.052 280.173 103.83 281.395 101.997C283.023 99.3499 279.968 94.0539 279.968 94.0539Z" fill="black"/>
<path d="M187.291 171.658C188.92 172.677 190.957 173.288 193.197 175.121C193.197 175.121 191.364 175.121 190.55 174.307C189.531 173.696 187.494 171.863 187.291 171.658Z" fill="#001423"/>
<path d="M246.156 10.1349C245.545 8.3019 241.063 5.04192 230.676 5.04192C219.473 5.04192 216.214 8.50491 216.011 10.3379C216.011 10.9489 215.196 17.4679 214.992 20.1149C214.992 20.1149 214.992 23.3739 215.195 28.2619C215.399 31.5209 216.214 33.3539 216.621 37.6319C217.028 42.1119 218.251 44.9639 220.491 48.6309C221.51 49.2409 222.324 49.8529 223.343 50.0569C227.417 50.8709 234.546 51.0749 238.416 50.0569C240.656 49.4459 243.508 45.5759 244.119 42.1129C244.933 37.8359 245.748 34.7799 245.952 32.1329C246.359 29.4859 246.563 23.5779 246.766 21.9479C247.378 17.4679 246.359 10.5419 246.156 10.1349Z" fill="#EFEFEF"/>
<path d="M224.769 261.892C224.769 261.892 235.565 266.577 262.248 262.503C262.248 262.503 254.712 300.389 258.175 319.331C258.175 319.331 261.637 324.22 287.302 333.589C287.302 333.589 298.708 336.441 298.301 342.145C298.301 342.145 298.708 343.367 284.858 342.959C271.008 342.551 257.971 340.107 248.805 340.107C239.639 340.107 229.862 340.514 228.233 337.867C226.4 335.423 228.64 329.108 231.288 325.441C234.141 321.572 233.325 318.719 233.122 311.795C232.509 293.667 218.658 274.928 224.769 261.892Z" fill="black"/>
<path d="M222.528 265.355C221.102 267.392 222.731 275.131 224.768 282.668C226.805 290.204 231.287 294.686 232.305 307.11C233.323 319.331 233.527 320.961 230.064 328.089C226.601 335.217 225.583 341.736 237.6 341.94C249.617 342.144 256.136 341.736 268.357 343.57C280.579 345.403 284.856 346.014 291.578 344.996C298.3 343.978 299.725 341.736 296.874 339.7C294.022 337.663 282.208 335.423 277.116 331.348C272.227 327.682 258.377 321.571 258.174 319.942C257.563 314.442 257.359 294.481 258.377 287.963C259.396 281.444 260.821 272.075 261.229 269.631C261.637 267.187 263.673 264.742 260.21 265.557C256.748 266.371 243.712 268.205 233.935 267.594C224.158 266.984 223.14 264.743 222.528 265.355Z" fill="#88CE02"/>
<path opacity="0.3" d="M229.454 328.294C232.916 329.923 238.009 331.146 241.879 331.146C241.879 331.146 240.452 337.868 242.693 341.941C244.933 346.015 226.398 343.571 226.398 343.571L225.584 329.109L229.454 328.294Z" fill="black"/>
<path opacity="0.3" d="M283.431 345.811C286.69 344.792 288.931 341.126 286.283 337.664C283.431 334.201 280.987 333.59 284.653 333.387C288.32 333.183 301.763 341.33 301.763 341.33L294.837 347.644L283.431 345.811Z" fill="black"/>
<path opacity="0.3" d="M221.917 273.298C226.602 274.928 233.731 275.335 239.842 275.131C245.952 274.928 255.118 274.112 261.026 272.076C266.932 270.039 264.488 274.316 264.488 274.316L261.229 277.372C261.229 277.372 253.489 280.427 240.861 280.224C225.992 280.02 221.51 278.391 221.51 278.391L221.917 273.298Z" fill="black"/>
<path opacity="0.3" d="M222.324 283.483C227.01 285.113 234.138 285.52 240.249 285.316C246.359 285.113 254.507 285.113 260.414 282.872C262.858 282.058 261.433 285.52 261.433 285.52L260.414 287.353C260.414 287.353 252.47 290.205 240.045 290C225.176 289.797 222.528 288.574 222.528 288.574L222.324 283.483Z" fill="black"/>
<path d="M208.881 140.699C208.881 142.125 224.769 150.068 233.527 151.698C242.286 153.327 260.618 151.698 263.469 151.087L263.061 153.939C263.061 153.939 241.267 157.198 224.565 152.717C207.862 148.236 209.696 147.217 209.696 147.217L208.881 140.699Z" fill="black"/>
<path d="M174.865 314.443C177.309 315.666 186.068 317.906 191.771 316.684C192.585 316.48 191.771 302.629 194.012 296.315C197.271 287.556 202.567 280.427 205.01 264.948C196.455 264.133 186.679 261.892 181.586 260.262C175.069 280.224 177.31 297.333 174.865 314.443Z" fill="#EFEFEF"/>
<path d="M188.513 327.276C189.939 327.683 190.957 329.312 191.365 328.295C192.179 326.461 189.939 322.999 189.735 320.555C189.735 320.351 189.735 320.555 189.735 320.351C187.902 318.722 175.477 318.518 176.292 319.332C174.866 321.98 172.626 321.573 171.812 326.869C171.405 329.516 174.664 327.276 177.718 327.072C172.219 330.738 165.905 335.424 164.886 339.497C163.664 345.2 165.701 346.83 171.812 349.886C177.108 351.108 183.422 351.312 188.31 351.108C193.81 350.089 194.829 347.442 193.199 343.775C190.753 338.275 189.124 331.146 188.513 327.276Z" fill="#EFEFEF"/>
<path d="M190.753 62.6859C197.475 66.5559 206.845 65.5379 210.307 65.3339C211.122 65.3339 219.27 63.9079 219.677 64.1109C220.491 64.3149 220.491 64.9259 220.491 64.9259C220.491 64.9259 217.436 66.5549 210.511 66.9619C203.993 67.3689 196.253 66.9619 191.976 64.9259C186.883 62.6859 190.753 62.6859 190.753 62.6859Z" fill="black"/>
<path d="M260.007 66.5559C261.229 67.3699 269.173 70.4259 272.636 74.0919C275.691 77.3519 274.062 77.1479 273.45 76.3329C272.636 75.3139 266.321 71.0369 263.877 70.0189C261.433 69.0009 258.377 67.1669 258.377 66.7599C258.377 66.3529 260.007 66.5559 260.007 66.5559Z" fill="black"/>
<path d="M189.734 151.086C195.641 150.679 201.752 152.105 205.622 156.178C207.659 158.215 210.918 160.455 210.511 162.492C210.511 163.103 209.288 164.733 208.271 165.955C207.66 166.769 205.827 168.602 205.215 169.214C204.401 169.825 201.549 172.066 200.938 172.473C200.327 172.881 199.512 173.9 198.901 174.103C196.865 175.122 194.624 174.307 192.587 173.289C190.551 172.27 192.995 172.066 190.754 170.437C185.255 166.567 182.199 163.918 184.44 156.382C184.643 154.956 186.883 153.326 189.734 151.086Z" fill="#EFEFEF"/>
<path opacity="0.4" d="M137.795 104.442C119.463 111.775 72.8182 134.996 59.5792 142.125C70.5782 149.05 75.6702 165.752 77.3002 182.658C77.5032 184.288 77.7072 185.714 77.9112 187.343C78.1142 188.769 78.3182 189.787 78.5212 190.399C78.5212 190.603 78.5212 191.01 78.7252 191.213C90.7432 158.42 133.72 123.793 135.35 121.145C136.164 119.923 134.331 114.627 137.183 109.536C140.85 103.016 147.98 100.164 137.795 104.442Z" fill="black"/>
<path opacity="0.4" d="M181.384 258.226C190.753 239.487 190.957 221.562 190.753 200.582C190.753 191.823 197.067 179.398 193.809 182.861C181.587 196.507 150.831 222.173 128.629 223.598C159.793 222.58 172.014 238.264 181.384 258.226Z" fill="black"/>
<path d="M41.6542 159.437C53.2642 151.086 113.352 119.108 127.814 114.626C142.275 109.941 137.794 104.441 137.794 104.441C137.794 104.441 79.1322 129.698 44.0982 151.493" fill="black"/>
<path opacity="0.4" d="M212.751 100.572C208.066 98.7389 204.4 104.239 205.622 109.535C206.845 114.831 217.844 120.737 217.232 140.088C216.825 155.976 213.362 162.493 213.362 162.493L205.622 152.717C205.622 152.717 204.4 130.718 201.752 127.459C199.105 124.2 190.753 118.293 187.494 115.238C184.235 112.182 191.16 108.109 190.753 102.405C190.346 96.9059 194.216 85.9069 194.216 85.9069L212.751 100.572Z" fill="black"/>
<path opacity="0.4" d="M241.064 187.342C240.657 202.618 244.12 225.228 245.545 236.024C246.971 246.819 248.804 247.634 245.545 252.523C242.286 257.208 238.009 264.948 238.009 264.948L223.954 263.725C223.954 263.725 235.157 249.467 235.767 246.819C236.378 244.172 230.064 224.007 230.064 224.007L241.064 187.342Z" fill="black"/>
<path opacity="0.4" d="M213.974 44.7619C216.826 51.0749 220.288 53.9269 225.787 55.7609C229.046 56.9829 241.878 58.6129 246.971 52.9089C249.211 50.2609 247.785 43.1319 247.785 43.1319L236.175 52.5009L220.491 49.6499L218.658 44.9649L213.974 44.7619Z" fill="black"/>
<path d="M215.195 58.8159C220.491 62.2789 233.731 65.5379 237.397 66.1489C241.063 66.9629 246.97 62.2789 249.822 61.0569C252.878 59.6309 258.174 58.8159 264.284 64.3159C264.895 64.9269 262.858 67.5749 262.858 67.5749C262.654 67.3709 261.432 67.3709 259.802 66.5559C258.173 65.7419 256.747 65.1299 254.303 65.3339C244.118 66.5559 242.489 70.0189 233.527 67.9809C224.565 65.9429 222.324 64.3149 213.566 64.7219" fill="#88CE02"/>
<path d="M215.195 58.8159C220.491 62.2789 233.731 65.5379 237.397 66.1489C241.063 66.9629 246.97 62.2789 249.822 61.0569C252.878 59.6309 258.174 58.8159 264.284 64.3159C264.895 64.9269 262.858 67.5749 262.858 67.5749C262.654 67.3709 261.432 67.3709 259.802 66.5559C258.173 65.7419 256.747 65.1299 254.303 65.3339C244.118 66.5559 242.489 70.0189 233.527 67.9809C224.565 65.9429 222.324 64.3149 213.566 64.7219" stroke="black" stroke-width="1.586" stroke-miterlimit="10" stroke-linejoin="round"/>
<path d="M213.362 59.4269C220.084 62.2789 233.12 65.3339 236.786 66.1489C240.452 66.9639 246.359 63.2969 249.211 61.4639C254.304 58.2049 260.821 60.8529 263.877 64.3159C265.913 66.5559 266.729 67.9819 266.729 68.5929C266.729 69.4069 264.285 68.5929 264.285 68.5929C262.859 67.9819 261.229 67.7789 260.008 66.9629C258.378 66.1489 256.748 64.9269 254.305 65.1299C244.12 66.3529 242.083 69.8149 233.325 67.7779C224.567 65.7409 222.326 63.9079 212.957 64.5179" fill="#88CE02"/>
<path d="M181.791 249.67C181.384 249.263 182.198 248.856 181.791 248.856C179.144 248.856 175.477 246.819 173.439 243.967C164.681 231.339 151.848 222.988 128.628 223.599C93.7972 224.413 79.9462 210.156 77.2992 182.862C75.8732 167.993 71.7992 153.531 63.4482 145.383L58.5592 148.439C67.9282 156.586 70.9842 169.826 73.0212 187.954C76.2802 215.248 98.2782 227.877 123.943 228.284C150.626 228.691 160.199 234.191 170.179 247.635C173.438 251.912 177.105 253.338 179.956 253.949L181.791 249.67Z" fill="black"/>
<path opacity="0.4" d="M276.302 118.7C276.913 121.755 278.542 127.662 281.801 130.513C283.228 131.939 283.431 132.346 282.209 132.346C280.986 132.346 272.024 131.939 272.024 131.939L269.58 127.662L276.302 118.7Z" fill="black"/>
</svg>
